<mxfile host="app.diagrams.net" modified="2021-02-10T08:12:43.460Z" agent="5.0 (Windows NT 10.0; Win64; x64) AppleWebKit/537.36 (KHTML, like Gecko) Chrome/88.0.4324.146 Safari/537.36" etag="8LXufh-9nqtGbK8IhNBR" version="14.3.0" type="github">
  <diagram id="Rnuk8DPCOvYCJsGH0qAO" name="Page-1">
    <mxGraphModel dx="868" dy="482" grid="1" gridSize="10" guides="1" tooltips="1" connect="1" arrows="1" fold="1" page="1" pageScale="1" pageWidth="850" pageHeight="1100" math="0" shadow="0">
      <root>
        <mxCell id="0" />
        <mxCell id="1" parent="0" />
        <mxCell id="6Vmt0i7vHrysUuyEGdad-1" value="Customer" style="shape=umlActor;verticalLabelPosition=bottom;verticalAlign=top;html=1;" parent="1" vertex="1">
          <mxGeometry x="370" y="40" width="60" height="110" as="geometry" />
        </mxCell>
        <mxCell id="6Vmt0i7vHrysUuyEGdad-2" value="Reserve parking spot" style="ellipse;whiteSpace=wrap;html=1;" parent="1" vertex="1">
          <mxGeometry x="330" y="220" width="140" height="70" as="geometry" />
        </mxCell>
        <mxCell id="6Vmt0i7vHrysUuyEGdad-18" style="edgeStyle=orthogonalEdgeStyle;rounded=0;orthogonalLoop=1;jettySize=auto;html=1;exitX=0.5;exitY=0;exitDx=0;exitDy=0;entryX=0;entryY=1;entryDx=0;entryDy=0;" parent="1" source="6Vmt0i7vHrysUuyEGdad-3" target="6Vmt0i7vHrysUuyEGdad-2" edge="1">
          <mxGeometry relative="1" as="geometry">
            <mxPoint x="370" y="310" as="targetPoint" />
          </mxGeometry>
        </mxCell>
        <mxCell id="6Vmt0i7vHrysUuyEGdad-3" value="Select Parking Lot" style="ellipse;whiteSpace=wrap;html=1;" parent="1" vertex="1">
          <mxGeometry x="190" y="440" width="140" height="70" as="geometry" />
        </mxCell>
        <mxCell id="6Vmt0i7vHrysUuyEGdad-17" style="edgeStyle=orthogonalEdgeStyle;rounded=0;orthogonalLoop=1;jettySize=auto;html=1;exitX=0.5;exitY=0;exitDx=0;exitDy=0;entryX=1;entryY=1;entryDx=0;entryDy=0;" parent="1" source="6Vmt0i7vHrysUuyEGdad-4" target="6Vmt0i7vHrysUuyEGdad-2" edge="1">
          <mxGeometry relative="1" as="geometry" />
        </mxCell>
        <mxCell id="6Vmt0i7vHrysUuyEGdad-4" value="Purchase reservation" style="ellipse;whiteSpace=wrap;html=1;" parent="1" vertex="1">
          <mxGeometry x="470" y="440" width="140" height="70" as="geometry" />
        </mxCell>
        <mxCell id="6Vmt0i7vHrysUuyEGdad-16" style="edgeStyle=orthogonalEdgeStyle;rounded=0;orthogonalLoop=1;jettySize=auto;html=1;exitX=0.5;exitY=0;exitDx=0;exitDy=0;entryX=1;entryY=0.5;entryDx=0;entryDy=0;" parent="1" source="6Vmt0i7vHrysUuyEGdad-5" target="6Vmt0i7vHrysUuyEGdad-2" edge="1">
          <mxGeometry relative="1" as="geometry" />
        </mxCell>
        <mxCell id="6Vmt0i7vHrysUuyEGdad-5" value="Review reservation" style="ellipse;whiteSpace=wrap;html=1;" parent="1" vertex="1">
          <mxGeometry x="570" y="350" width="140" height="70" as="geometry" />
        </mxCell>
        <mxCell id="6Vmt0i7vHrysUuyEGdad-9" value="Includes" style="text;html=1;align=center;verticalAlign=middle;resizable=0;points=[];autosize=1;" parent="1" vertex="1">
          <mxGeometry x="210" y="260" width="60" height="20" as="geometry" />
        </mxCell>
        <mxCell id="6Vmt0i7vHrysUuyEGdad-10" value="Includes" style="text;html=1;align=center;verticalAlign=middle;resizable=0;points=[];autosize=1;" parent="1" vertex="1">
          <mxGeometry x="510" y="260" width="60" height="20" as="geometry" />
        </mxCell>
        <mxCell id="6Vmt0i7vHrysUuyEGdad-11" value="Includes" style="text;html=1;align=center;verticalAlign=middle;resizable=0;points=[];autosize=1;" parent="1" vertex="1">
          <mxGeometry x="290" y="340" width="60" height="20" as="geometry" />
        </mxCell>
        <mxCell id="6Vmt0i7vHrysUuyEGdad-12" value="" style="endArrow=none;html=1;" parent="1" edge="1">
          <mxGeometry width="50" height="50" relative="1" as="geometry">
            <mxPoint x="399.5" y="210" as="sourcePoint" />
            <mxPoint x="400" y="180" as="targetPoint" />
          </mxGeometry>
        </mxCell>
        <mxCell id="6Vmt0i7vHrysUuyEGdad-15" style="edgeStyle=orthogonalEdgeStyle;rounded=0;orthogonalLoop=1;jettySize=auto;html=1;exitX=0.5;exitY=0;exitDx=0;exitDy=0;entryX=0;entryY=0.5;entryDx=0;entryDy=0;" parent="1" source="6Vmt0i7vHrysUuyEGdad-13" target="6Vmt0i7vHrysUuyEGdad-2" edge="1">
          <mxGeometry relative="1" as="geometry" />
        </mxCell>
        <mxCell id="6Vmt0i7vHrysUuyEGdad-13" value="Select Event" style="ellipse;whiteSpace=wrap;html=1;" parent="1" vertex="1">
          <mxGeometry x="90" y="350" width="140" height="70" as="geometry" />
        </mxCell>
        <mxCell id="6Vmt0i7vHrysUuyEGdad-19" value="Includes" style="text;html=1;align=center;verticalAlign=middle;resizable=0;points=[];autosize=1;" parent="1" vertex="1">
          <mxGeometry x="460" y="340" width="60" height="20" as="geometry" />
        </mxCell>
        <mxCell id="_fI6w2nrLj7vSY02vJHo-2" style="edgeStyle=orthogonalEdgeStyle;rounded=0;orthogonalLoop=1;jettySize=auto;html=1;exitX=0.5;exitY=0;exitDx=0;exitDy=0;" edge="1" parent="1" source="_fI6w2nrLj7vSY02vJHo-1" target="6Vmt0i7vHrysUuyEGdad-2">
          <mxGeometry relative="1" as="geometry" />
        </mxCell>
        <mxCell id="_fI6w2nrLj7vSY02vJHo-1" value="Select Parking Spot" style="ellipse;whiteSpace=wrap;html=1;" vertex="1" parent="1">
          <mxGeometry x="330" y="490" width="140" height="70" as="geometry" />
        </mxCell>
        <mxCell id="_fI6w2nrLj7vSY02vJHo-3" value="Extends" style="text;html=1;align=center;verticalAlign=middle;resizable=0;points=[];autosize=1;" vertex="1" parent="1">
          <mxGeometry x="400" y="400" width="60" height="20" as="geometry" />
        </mxCell>
      </root>
    </mxGraphModel>
  </diagram>
</mxfile>
